<?xml version="1.0" encoding="UTF-8"?>
<svg id="Layer_1" data-name="Layer 1" xmlns="http://www.w3.org/2000/svg" viewBox="0 0 279.3 86.63">
  <defs>
    <style>
      .cls-1 {
        fill: #2850a2;
        stroke-width: 0px;
      }
    </style>
  </defs>
  <g id="RASI">
    <g>
      <path class="cls-1" d="m170.7,84.87h-13.42c-.14-2.81-.27-5.39-.42-8.48-1.33.7-2.23,1.06-3,1.6-15.36,10.74-39.74,10.71-55.07-.23-14.91-10.64-20.49-26.11-14.88-42.19,4.63-13.29,14.9-21.29,28.19-25.08,15.08-4.3,29.46-2.41,42.58,6.64.49.33,1.08.51,2.08.97.13-1.44.26-2.5.3-3.56.05-1.13.01-2.25.01-3.77h13.62v74.1Zm-44.17-63.31c-8.32.04-14.89,2.26-21.24,7.23-10.66,8.33-12.68,21.79-4.39,32.33,13.28,16.88,41.17,15.55,52.69-2.1,5.63-8.63,4.38-19.41-2.61-26.98-6.62-7.18-14.86-10.34-24.45-10.47Z"/>
      <path class="cls-1" d="m0,13.41V.29C1.19.21,2.3.08,3.4.08c12.6-.01,25.21-.2,37.8.05,9.12.18,17.66,2.42,24.19,9.42,10.31,11.05,8.95,30.67-2.8,40.22-3.89,3.17-8.21,5.51-13.24,6.38-.86.15-1.69.46-3.03.83,1.91,5.6,4.46,10.51,9.18,14.06,4.84,3.64,10.72,2.31,16.51,2.97v11.84c-13.83,2.48-24.29-1.04-31.23-10.25-2.42-3.21-4.49-6.77-6.18-10.41-2.69-5.83-6.63-8.83-13.38-8.43-6.95.41-13.94.09-21.16.09v-12.7c1.54-.09,3.02-.24,4.5-.24,12.47-.02,24.95,0,37.42-.02,5.38-.01,10.07-1.77,13.27-6.22,3.7-5.14,4.32-10.95,1.56-16.56-2.73-5.54-8.04-7.58-13.97-7.64-12.73-.12-25.46-.04-38.18-.05-1.49,0-2.98,0-4.65,0Z"/>
      <path class="cls-1" d="m188.28,77.94c2.16-3.9,4.12-7.43,6.28-11.32,1.89.84,3.57,1.61,5.27,2.35,8.42,3.65,17.1,5.85,26.33,3.99,2.06-.42,4.2-1.24,5.91-2.44,4.6-3.23,4.51-9.38-.51-11.78-4.75-2.27-10.05-3.38-15.09-5.05-6.61-2.19-13.3-4.19-19.77-6.75-3.97-1.57-6.88-4.82-8.95-8.54-5.09-9.12-1.41-19.95,8.61-24.94,13.53-6.74,27.47-6.51,41.51-1.69,2.86.98,5.57,2.38,8.91,3.84-2.05,4.05-3.95,7.81-6.01,11.9-2-.87-3.59-1.58-5.19-2.27-6.97-2.99-14.18-4.81-21.85-4.45-3.97.19-7.5,1.39-10.38,4.15-4.09,3.91-3.63,8.72,1.5,11.12,4.68,2.18,9.66,3.9,14.67,5.18,7.26,1.87,14.71,3.04,21.17,7.2,6.03,3.88,9.74,8.94,9.61,16.54-.1,6.07-2.96,10.37-7.5,13.78-7.32,5.51-15.84,7.08-24.81,7.22-10.56.17-20.34-2.26-29.68-8.03Z"/>
      <path class="cls-1" d="m265.63,11.37h13.67v74.22h-13.67V11.37Z"/>
    </g>
  </g>
</svg>