<?xml version="1.0" encoding="UTF-8"?>
<svg id="Layer_1" data-name="Layer 1" xmlns="http://www.w3.org/2000/svg" viewBox="0 0 920.88 89">
  <defs>
    <style>
      .cls-1 {
        fill: #ea5058;
      }

      .cls-1, .cls-2 {
        stroke-width: 0px;
      }

      .cls-2 {
        fill: #2850a2;
      }
    </style>
  </defs>
  <g id="RASI">
    <g>
      <path class="cls-2" d="m170.7,84.87h-13.42c-.14-2.81-.27-5.39-.42-8.48-1.33.7-2.23,1.06-3,1.6-15.36,10.74-39.74,10.71-55.07-.23-14.91-10.64-20.49-26.11-14.88-42.19,4.63-13.29,14.9-21.29,28.19-25.08,15.08-4.3,29.46-2.41,42.58,6.64.49.33,1.08.51,2.08.97.13-1.44.26-2.5.3-3.56.05-1.13.01-2.25.01-3.77h13.62v74.1Zm-44.17-63.31c-8.32.04-14.89,2.26-21.24,7.23-10.66,8.33-12.68,21.79-4.39,32.33,13.28,16.88,41.17,15.55,52.69-2.1,5.63-8.63,4.38-19.41-2.61-26.98-6.62-7.18-14.86-10.34-24.45-10.47Z"/>
      <path class="cls-2" d="m0,13.41V.29C1.19.21,2.3.08,3.4.08c12.6-.01,25.21-.2,37.8.05,9.12.18,17.66,2.42,24.19,9.42,10.31,11.05,8.95,30.67-2.8,40.22-3.89,3.17-8.21,5.51-13.24,6.38-.86.15-1.69.46-3.03.83,1.91,5.6,4.46,10.51,9.18,14.06,4.84,3.64,10.72,2.31,16.51,2.97v11.84c-13.83,2.48-24.29-1.04-31.23-10.25-2.42-3.21-4.49-6.77-6.18-10.41-2.69-5.83-6.63-8.83-13.38-8.43-6.95.41-13.94.09-21.16.09v-12.7c1.54-.09,3.02-.24,4.5-.24,12.47-.02,24.95,0,37.42-.02,5.38-.01,10.07-1.77,13.27-6.22,3.7-5.14,4.32-10.95,1.56-16.56-2.73-5.54-8.04-7.58-13.97-7.64-12.73-.12-25.46-.04-38.18-.05-1.49,0-2.98,0-4.65,0Z"/>
      <path class="cls-2" d="m188.28,77.94c2.16-3.9,4.12-7.43,6.28-11.32,1.89.84,3.57,1.61,5.27,2.35,8.42,3.65,17.1,5.85,26.33,3.99,2.06-.42,4.2-1.24,5.91-2.44,4.6-3.23,4.51-9.38-.51-11.78-4.75-2.27-10.05-3.38-15.09-5.05-6.61-2.19-13.3-4.19-19.77-6.75-3.97-1.57-6.88-4.82-8.95-8.54-5.09-9.12-1.41-19.95,8.61-24.94,13.53-6.74,27.47-6.51,41.51-1.69,2.86.98,5.57,2.38,8.91,3.84-2.05,4.05-3.95,7.81-6.01,11.9-2-.87-3.59-1.58-5.19-2.27-6.97-2.99-14.18-4.81-21.85-4.45-3.97.19-7.5,1.39-10.38,4.15-4.09,3.91-3.63,8.72,1.5,11.12,4.68,2.18,9.66,3.9,14.67,5.18,7.26,1.87,14.71,3.04,21.17,7.2,6.03,3.88,9.74,8.94,9.61,16.54-.1,6.07-2.96,10.37-7.5,13.78-7.32,5.51-15.84,7.08-24.81,7.22-10.56.17-20.34-2.26-29.68-8.03Z"/>
      <path class="cls-2" d="m265.63,11.37h13.67v74.22h-13.67V11.37Z"/>
    </g>
  </g>
  <g>
    <path class="cls-1" d="m422.05,86.11h-15.96c-.22-4.15-.55-7.78-.59-11.41-.15-11.92.29-23.88-.42-35.76-.74-12.22-8.13-17.87-18.91-15.58-6.24,1.33-10.5,5.35-12.19,11.19-1.58,5.48-2.44,11.31-2.65,17.01-.4,11.16-.12,22.34-.12,34.33h-15.66c-.36-2.42-1.04-4.99-1.07-7.56-.13-9.88-.04-19.76-.08-29.64-.01-3.41.04-6.83-.25-10.21-.7-8.39-4.27-13.68-9.94-15.12-6.9-1.74-14.93.73-18.51,7.66-3.01,5.83-4.92,12.7-5.4,19.26-.85,11.47-.24,23.06-.24,35.51h-16.05V10.86h14.85c.63,2.06,1.2,3.95,1.94,6.36,15.21-11.92,30.23-13.29,44.77,1.62,7.35-6.22,15.07-10.65,24.86-10.72,18.31-.14,30.2,9.35,31.39,27.71,1.06,16.24.22,32.61.22,50.28Z"/>
    <path class="cls-1" d="m520.85,53.89h-61.62c1.46,21.53,24.11,26.62,52.84,11.95,2.51,2.75,5.18,5.67,8.38,9.17-13.56,12.44-29.01,15.79-45.84,12.92-18.78-3.21-29.86-14.57-33.29-32.67-2.98-15.7,4.23-32.46,17.5-40.7,14.43-8.96,35.1-8.52,48.36,1.04,11.06,7.97,16.73,22.95,13.67,38.3Zm-17.52-13.8c-1.48-12.28-10.07-19.15-21.92-18.64-12.08.53-20.73,7.91-21.28,18.64h43.2Z"/>
    <path class="cls-1" d="m817.64,16.84c.62-1.89,1.23-3.72,2.01-6.09h14.24c.24,25.14.16,49.77.05,74.12-12.41,3.21-13.24,2.95-16.35-5.27-10.55,8.05-22.26,11.3-35.2,8.01-8.48-2.16-15.67-6.38-21.01-13.56-11.9-16.02-11.04-39.14,2.12-53.83,13.06-14.57,31.91-15.81,54.15-3.39Zm-23.2,6.26c-14.65.02-24.41,10.24-24.36,25.51.05,15.18,9.99,25.3,24.72,25.15,14.03-.14,23.73-10.31,23.87-25.05.15-15.31-9.62-25.63-24.23-25.61Z"/>
    <path class="cls-1" d="m541.36,86.34V10.82c16.33-.46,32.23-3.01,47.63,2.8,16.96,6.4,25.91,22.42,23.53,40.92-2.08,16.19-15.82,29.66-34.22,31.56-11.76,1.22-23.76.23-36.94.23Zm16.49-14.91c13.82,1.22,26.49,2.33,34.76-10.45,5.26-8.12,4.2-20.64-1.84-27.7-7.05-8.25-19.89-10.8-32.92-6.38v44.53Z"/>
    <path class="cls-1" d="m736.83,64.12c2.57,2.99,4.97,5.79,7.33,8.54-6.88,12.35-24.4,18.88-40.98,15.42-17.53-3.66-30.55-18.14-31.79-35.37-1.39-19.31,7.92-34.74,24.79-41.57,13.83-5.6,36.01-4.19,47.6,13.12-2.92,2.57-6.08,5.34-9.2,8.09-17.89-11.66-30.9-11.91-40.45-.94-8.11,9.32-8.2,24.45-.18,33.91,9.44,11.15,23.14,11.06,42.86-1.19Z"/>
    <path class="cls-1" d="m920.88,72.71v13.24h-59.06c-2.37-7.76-2.75-63.49-.41-74.95h15.1c.04,9.84.09,19.59.11,29.33.02,9.87,0,19.74,0,30.69,14.73,2.28,29.36-.23,44.25,1.69Z"/>
    <path class="cls-1" d="m648.88,86.21h-13.63c-2.84-7.38-3.37-63.97-.67-75.17,2.07-.26,4.34-.74,6.62-.78,2.3-.04,4.61.35,7.68.62v75.34Z"/>
  </g>
</svg>